<?xml version="1.0" encoding="utf-8"?>
<!-- Svg Vector Icons : http://www.onlinewebfonts.com/icon -->
<!DOCTYPE svg PUBLIC "-//W3C//DTD SVG 1.1//EN" "http://www.w3.org/Graphics/SVG/1.1/DTD/svg11.dtd">
<svg version="1.1" xmlns="http://www.w3.org/2000/svg" xmlns:xlink="http://www.w3.org/1999/xlink" x="0px" y="0px" viewBox="0 0 1000 1000" enable-background="new 0 0 1000 1000" xml:space="preserve">
<metadata> Svg Vector Icons : http://www.onlinewebfonts.com/icon </metadata>
<g><g transform="translate(0.000000,511.000000) scale(0.100000,-0.100000)"><path d="M4817.3,4270.3c-62.1-9.9-188.8-49.7-280.8-87c-166.5-67.1-181.4-67.1-496.9-52.2c-365.2,19.9-524.3-7.5-742.9-126.7c-146.6-82-236-166.5-636.1-608.7c-171.4-188.8-484.5-499.4-695.7-693.2C1381.1,2170.8,874.3,1649,697.8,1400.6C536.3,1172,335.1,779.4,260.5,550.8C116.4,98.6,56.8-691.5,133.8-1183.4c248.5-1615,1406.3-2531.8,3567.9-2825c362.8-49.7,516.8-54.7,1341.7-54.7c1031.1-2.5,1349.1,24.8,2010.1,159c887,178.9,1555.4,504.4,2029.9,983.9c410,414.9,660.9,946.7,785.1,1649.8c47.2,280.8,39.7,1048.5-12.4,1341.7C9689.7,973.2,9264.8,1634.1,8266,2546c-236,213.7-651,616.2-924.3,892c-665.9,675.8-703.1,693.2-1354.1,695.7c-382.6,2.5-419.9,5-571.5,67.1C5234.8,4272.8,4988.8,4302.6,4817.3,4270.3z M5284.5,3619.3c193.8-79.5,196.3-82,628.6-82c362.8,0,447.2-7.5,511.8-42.2c44.7-24.8,206.3-178.9,360.3-345.4c156.6-166.5,519.3-516.8,805-780.2c884.5-810,1200.1-1172.7,1428.7-1639.8c236-479.5,313.1-884.5,290.7-1515.6c-22.4-618.7-136.7-1016.2-405-1418.7C8420-2935.1,7508.2-3327.7,6000-3456.9c-464.6-39.7-1602.6-32.3-2037.4,12.4c-882,91.9-1627.4,313-2114.4,621.2C993.5-2281.6,615.8-1461.7,697.8-336.2c64.6,892,372.7,1423.7,1329.3,2295.8c576.4,524.3,822.4,765.3,1172.7,1152.9c405,444.7,407.5,447.2,882,424.9l352.8-14.9l236,87c129.2,47.2,278.3,87,328,87C5050.9,3698.8,5175.1,3664.1,5284.5,3619.3z"/><path d="M5696.9,3338.6c-89.4-39.8-181.4-169-181.4-255.9c0-164,64.6-221.1,685.8-628.6c554.1-360.3,780.2-623.6,842.3-976.4c34.8-203.8,57.1-246,164-303.1c89.5-44.7,181.4-44.7,270.8,2.5c109.3,57.1,149.1,131.7,149.1,285.7c0,397.5-233.6,815-653.4,1160.3c-243.5,201.2-1031.1,718.1-1123.1,735.4C5808.7,3368.4,5741.6,3358.4,5696.9,3338.6z"/><path d="M4322.9,3333.6c-37.3-14.9-273.3-164-708.1-452.2c-134.2-89.5-342.9-255.9-462.1-370.2c-355.3-337.9-514.3-636.1-539.2-1003.8l-12.4-191.3l89.4-89.4c74.5-74.5,104.4-87,203.7-87s129.2,12.4,196.3,82c67.1,64.6,84.5,106.8,99.4,226.1c44.7,385.1,305.6,673.3,1016.2,1120.6c370.2,233.6,464.6,323,479.5,447.2c12.4,111.8-22.4,196.3-114.3,263.4C4501.8,3331.1,4380,3356,4322.9,3333.6z"/><path d="M4961.5,3087.6c-44.7-24.8-96.9-96.9-154.1-218.6c-111.8-236-313.1-489.5-516.8-655.9c-382.6-308.1-559-574-616.2-916.8c-37.3-226.1-17.4-335.4,77-414.9c99.4-82,198.8-99.4,305.6-54.7c116.8,47.2,164,129.2,193.8,325.5c29.8,216.2,74.5,295.7,253.4,459.6c549.1,501.9,675.8,653.5,839.8,1003.8c62.1,134.2,74.5,188.8,64.6,270.8C5381.4,3090.1,5155.2,3192,4961.5,3087.6z"/></g></g>
</svg>