<?xml version="1.0" encoding="UTF-8" standalone="no"?>
<svg
   xmlns:dc="http://purl.org/dc/elements/1.1/"
   xmlns:cc="http://creativecommons.org/ns#"
   xmlns:rdf="http://www.w3.org/1999/02/22-rdf-syntax-ns#"
   xmlns:svg="http://www.w3.org/2000/svg"
   xmlns="http://www.w3.org/2000/svg"
   xml:space="preserve"
   style="enable-background:new 0 0 960 560;"
   viewBox="0 0 960 560"
   y="0px"
   x="0px"
   id="Layer_1"
   version="1.1"><metadata
     id="metadata91"><rdf:RDF><cc:Work
         rdf:about=""><dc:format>image/svg+xml</dc:format><dc:type
           rdf:resource="http://purl.org/dc/dcmitype/StillImage" /></cc:Work></rdf:RDF></metadata><defs
     id="defs89" /><style
     id="style2"
     type="text/css">
	
		.st0{fill-rule:evenodd;clip-rule:evenodd;fill:none;stroke:#201D0F;stroke-width:8;stroke-linecap:round;stroke-linejoin:round;stroke-miterlimit:10;}
	
		.st1{fill-rule:evenodd;clip-rule:evenodd;fill:none;stroke:#201D0F;stroke-width:2;stroke-linecap:round;stroke-linejoin:round;stroke-miterlimit:10;}
</style><path
     id="path4"
     d="M491.5,293.6c46.5,0,73.5,19.6,73.5,38.1c0,18.5-28.1,35-73.5,35c-45.4,0-74.6-17.5-74.6-38.1  C416.9,308,456.9,293.6,491.5,293.6z"
     class="st0" /><path
     id="path6"
     d="M416.9,325.5c0,0-5.4-47.4,77.8-47.4c48.6,0,63.8,19.6,63.8,19.6"
     class="st0" /><path
     id="path8"
     d="M645,277.2c0,0-6.5-16.5-14-19.6c-7.6-3.1-24.3-7.7-31.9-10.7c-10.5-4.1-17.1-1.4-18.2,3.7  c-1.1,5.1-0.2,9,19.3,15.2c19.5,6.2,19.2,7.7,25.2,16.5c0.8,1.2,1.3,12.3,1.3,12.3s-40.8,1-51.6,0c-10.8-1-18.8,1.2-17.3,10.3  c1.4,8.8,26.6,5.2,36.5,6.2c18.6,1.8,22.7,8.2,22.7,12.4c0,4.1-23.8,9.3-30.3,9.3c-6.5,0-20.5,1-20.5,1"
     class="st0" /><path
     id="path10"
     d="M560.2,347.9c0,0,5.9,1.3,17.8,1.3c11.9,0,20.5-3.1,30.3-2.1c9.7,1-1.1,11.3,22.7,18.5  c23.8,7.2,57.5,48.5,88.8,87.6c31.3,39.1,41.6,55.2,65.4,64.4c15.8,6.2,32.3,17.8,45.3,17.8c13,0,45,3.3,36.4-39  c-8.6-42.2-29.3-73-74.7-97.7c-45.4-24.7-88.8-49.7-111.5-73.3c-22.7-23.7-24.9-65.9-33.5-76.2c-8.6-10.3-12.2-10-21.6-18.5  c-12-10.8-20.5-6.5-18.4,1.7c2.2,8.2,19.6,22.9,19.6,22.9"
     class="st0" /><path
     id="path12"
     d="M301.2,196.7c0,0,5.9-2.9,16.1-12.5c8.8-8.2,14.9-7,18.1-0.8c3.2,6.2-1.7,11.4-1.7,11.4"
     class="st0" /><path
     id="path14"
     d="M722.7,457.3c0,0,16.3,34,6.3,51.5c-14.2,24.9,5.6,35.9,5.6,35.9s11.2,7.7,28,7.7s117.2,0,117.2,0  s13.7,1.7,15.7-8.4c2-10.2,2.5-13.1,3.6-21.8c1-8.7-6.1-21.8-8.6-30.9c-2.5-9.2-9.6-27.6-12.7-45.4c-3-17.9-11.2-32.4-35-46.9  c-23.9-14.5-35-1.4-42.1-12.6c-7.1-11.1,4.1-11.6-27.9-35.8c-32-24.2-58.9-44-71.6-58c-21.8-24.2-44.7-21.6-44.7-21.6"
     class="st0" /><path
     id="path16"
     d="M231.5,432.4c0,0,10.7,4.8,17.1,12.9c0,0,11.6,25.7,5.4,51.4c-6.5,26.7-20.5,48.3-50.7,55.5  c-30.3,7.2-50.5,9.5-76.2,6.4c-25.8-3.1-40.9-7.5-43.1-45.3c-2.1-37.8,5.1-53.6,19.4-71c7.8-9.6,22.4-15.6,22.4-15.6"
     class="st0" /><path
     id="path18"
     d="M248.2,364.6c0,0,19.8-7.8,37.1-27.7c17.3-19.8,30-32.4,39.1-38.7c9.1-6.3,18.9-12,18.9-12"
     class="st0" /><path
     id="path20"
     d="M328.7,426.7c0,0-12.5,14-6.5,30.6c6.5,17.7,3.6,26.1,3.6,36.2c0,10.2-1.5,21.3-3.1,33.9  c-1.5,12.6,0,24.9,0,24.9"
     class="st0" /><path
     id="path22"
     d="M249.7,511.9c0,0,15.8-10.9,26.8-22.7c23.9-25.6,49.9-59.6,49.9-59.6"
     class="st0" /><path
     id="path24"
     d="M674.3,399.7c0,0-11.7,31.9-10.7,60.9c1,29,4.1,55.1,4.1,69.6c0,14.5,0.5,22,0.5,22"
     class="st0" /><path
     id="path26"
     d="M523.5,416.7c0,0,17.8-2.4,37.1-1.5c19.3,1,25.9,2.4,25.4,6.3c-0.5,3.9-3.6,4.8-7.1,4.8c-3.6,0-11.7-1-24.4-1  c-12.7,0-32,0-32,0"
     class="st0" /><path
     id="path28"
     d="M523.6,500.9c0,0,17.2-1.6,29.9-2.1c12.7-0.5,22.8,1.6,27.4,4c4.6,2.4,4.1,4.8,3.6,6.8c-0.5,1.9-4.1,2.9-10.7,1  c-6.6-1.9-14.2-1.3-26.4-1.3c-12.2,0-17.7,1-24.2,1"
     class="st0" /><path
     id="path30"
     d="M475.7,509.5c0,0-19.8-0.5-31.5,0.5c-11.7,1-25.8,7.1-27.9-0.1c-1.8-6.2,4.1-8.5,8.7-9.1  c6.5-0.9,24.4-1.4,35.5-1.4c11.2,0,14.7,0,14.7,0"
     class="st0" /><path
     id="path32"
     d="M475.2,414.3c0,0-10.2,0-28.4,0c-18.3,0-23.9,1.9-27.9,2.9c-4.1,1-5.6,4.8-5.6,7.3c0,2.4,2,3.9,8.6,3.4  c6.6-0.5,11.7-1.9,27.9-2.4c16.2-0.5,26.4,0,26.4,0"
     class="st0" /><path
     id="path34"
     d="M332.4,75.9c0,0-5-13.6-13.8-27.2c-8.9-13.6-10.9-14-10.9-14s1.5-1,4.9-3.1c3.4-2.1,4.7-1,4.7-1  s6.2,8.1,10.8,16.7c4.3,7.9,6.3,14.2,6.3,14.2s2.5-11.1-3-28.8C325.8,15,315.2,6.3,315.2,6.3l14.6-3.1c0,0,4.2,3.2,10,24.7  c5.7,21.5,3.5,39.6,3.5,39.6"
     class="st0" /><path
     id="path36"
     d="M629,67.7l9.2,0c0,0,4,2.6,7.4,8.3c2.3,3.9,5.6,17.4,1.4,27c-2.1,4.9-4.6,8.4-4.6,8.4"
     class="st0" /><path
     id="path38"
     d="M338.8,110c0,0,0,2.6-4-7.1c-4.1-9.7,0-22.5,1.5-25.1c3.6-6.1,8.6-10.2,8.6-10.2l10.7,0.5"
     class="st0" /><path
     id="path40"
     d="M647.7,77.8c0,0,25.4-11.6,45.2-2.9c19.8,8.7,38.8,28.1,45.2,68.6c7,44.6,8.5,60.2-0.5,63.8  c-6.9,2.8-19.8,4.4-19.8,4.4"
     class="st0" /><path
     id="path42"
     d="M715.2,194.3c0,0,3.8,12.6,2,23.2c-0.6,3.4-0.4,6.7-3.5,7.2c-3,0.5-10.2,0.1-17.9-0.9c-7.6-1-12.7-3.4-12.7-3.4  s3.3-8.9,4.8-20.6c1-8.2,0.4-17.8,0.4-17.8"
     class="st0" /><path
     id="path44"
     d="M685.1,205.9c0,0-4.9-0.9-16.6-5.3c-11.7-4.3-10.6-8.2-8.1-16c2.3-6.9,7.2-21.7,6.6-43  c-0.5-17.4-4.1-31.6-9.6-35.8c-3.9-2.9-9.5-1.9-9.5-1.9"
     class="st0" /><path
     id="path46"
     d="M334.8,103.9c0,0-1-2-8.1,1.9c-6.1,3.4-9.1,18.4-9.6,35.8c-0.5,16.9,3.6,29.5,5.6,37.6"
     class="st0" /><path
     id="path48"
     d="M651.1,90.2c0,0,10.2-2.7,17.3-0.7c7.1,1.9,11.4,8.2,11.4,8.2"
     class="st0" /><path
     id="path50"
     d="M651.9,75.2c0,0,1.5-4,12.1-21.4c10.7-17.4,15.2-18.9,15.2-18.9s-2-4-6.2-5.4c-2.4-0.8-4.4-1.1-4.4-1.1  s-6,5.9-12.6,18c-6.6,12.1-8.4,17.3-8.4,17.3s-2.6-10.5,2-30.8c4.6-20.3,9.6-31.4,9.6-31.4s-2-1.4-6.6-1.4c-4.6,0-6.6,1-7.6,5.3  c-1,4.4-5.1,22.2-6.6,35.3c-1.5,13.1,1.5,27.1,1.5,27.1"
     class="st0" /><path
     id="path52"
     d="M499.9,25.9c0,0,0,41.8,0,59.2c0,17.4,3.6,33.8-6.1,38.7c-9.6,4.8-21.3,10.6-33,17.9  c-11.7,7.3-12.4,9.5-12.4,9.5"
     class="st0" /><path
     id="path54"
     d="M500.6,112.6c0,0-0.1,9.2,12.5,13c12.7,3.9,30.5,14,40.1,21.8c9.6,7.7,9.9,9.9,9.9,9.9"
     class="st0" /><line
     id="line56"
     y2="332.6"
     x2="570.3"
     y1="312.4"
     x1="598.2"
     class="st0" /><path
     id="path58"
     d="M357.5,193.2c27-27,77.1-45.2,134.4-45.2c86,0,155.7,40.9,155.7,91.2c0,3.1-0.3,6.1-0.8,9.1"
     class="st0" /><path
     id="path60"
     d="M336.3,239.3c0-8.9,2.2-17.6,6.3-25.7"
     class="st0" /><path
     id="path62"
     d="M416.9,328.6l-53.6-38c-11.5-9.8-19.7-21.1-23.9-33.2"
     class="st0" /><path
     id="path64"
     d="M355.3,190c0,0-8.1-8.7-10.2-15c-2-6.3-5.1-16.4-6.6-45.4c-1.5-29,7.6-53.2,36.6-83.1  c28.9-30,62.4-33.8,91.9-37.2c29.4-3.4,33,18.4,33,18.4s5.1-17.4,32-19.8c26.9-2.4,53.3,15.5,70.6,26.6c17.3,11.1,27.4,35.3,34,52.7  c6.8,17.9,5.6,42.3,6.1,55.6c0.5,13.5,0.5,25.6-3,34.3c-3.6,8.7-11.1,17.8-11.1,17.8"
     class="st0" /><path
     id="path66"
     d="M348.3,239.1 M326.4,223l10.3,7.6 M277,200.4l-65.7-47.5l0.9-4.9l5.5-4.9l74.9,55.1 M331.7,239.9l-16.3-11.8"
     class="st0" /><path
     id="path68"
     d="M364.1,241.2 M297.7,195.7l-67-60.5l2.7-5.6l6.6-3.7l67.8,64.7 M347.1,240.3"
     class="st0" /><path
     id="path70"
     d="M203.9,552.3H960 M0,552.3h101"
     class="st1" /><path
     id="path72"
     d="M501.6,517.3"
     class="st0" /><path
     id="path74"
     d="M497.9,367.1v34.7v0.5c8.5,0,15.4,6.6,15.4,14.7c0,8.1-6.9,14.7-15.4,14.7l0,0.5v55.7l0,0.6  c8.5,0,15.4,6.6,15.4,14.7c0,8.1-6.9,14.7-15.4,14.7l0,1v33.5"
     class="st0" /><path
     id="path76"
     d="M497.5,424.1c-4.2,0-7.6-3.2-7.6-7.2c0-4,3.4-7.2,7.6-7.2"
     class="st0" /><path
     id="path78"
     d="M497.5,510.4c-4.2,0-7.6-3.2-7.6-7.2s3.4-7.2,7.6-7.2"
     class="st0" /><path
     id="path80"
     d="M277.8,217.2c0,0,7.4-3.3,17.1-7.4c9.7-4.1,36.7-11.3,44.3-16.5c7.6-5.1,10.8-6.2,15.1-3.1  c4.3,3.1,5.4,10.3,1.1,15.4c-4.3,5.1-21.6,10.3-27,15.4c-5.4,5.1-20.5,8.2-29.2,12.4c-8.6,4.1-14,8.2-4.3,9.3  c9.7,1,10.8-2.1,33.5-2.1c22.7,0,35.7-4.1,40-3.1c4.3,1,6.5,7.2,3.2,12.4c-3.2,5.1-19.5,4.1-27,6.2c-7.6,2.1-31.3,5.1-38.9,7.2  c-7.6,2.1-19.5,3.1-19.5,3.1s33.5-2.1,53.7,5.3c8.1,3,15.1,10.5,10.8,13.6c-4.3,3.1-17.3-2.1-17.3-2.1s-12.5,0.6-24,3.1  c-7.5,1.6-10.2,2.7-10.2,2.7s-9.2,22-25.9,21.6c-9.6-0.2-15.2,20.8-18.3,28.1c-10.4,24.1-29.7,119.8-37.3,143.4  c-7.6,23.7-38.2,77.8-93.4,65.3c-11.4-2.6-22.6-9.1-25.9-47.2c-3.2-38.1,35-79.2,69.3-126.1c32.1-43.9,28.9-69.8,45.1-88.3  c16.2-18.5,29.2-51.4,38.9-63.8c9.7-12.4,17.3-20.6,33.6-22.7c16.2-2.1,45.5-2.6,45.5-2.6"
     class="st0" /><path
     id="path82"
     d="M567,310.8c1.3,3.5,1.9,7.2,1.9,10.9c0,5.6-1.5,10.5-4.3,15.4"
     class="st0" /><path
     id="path84"
     d="M247.9,132.4c7.4-33.1,25.3-49.6,43.2-57.5c19.8-8.7,45.2,2.9,45.2,2.9 M243.6,161.7c0.5-4.1,1-8.4,1.6-13   M260.2,211c-4.3-0.6-10.1-1.8-13.7-3.7c-4.5-2.3-5.7-12.3-4.2-31.3"
     class="st0" /></svg>